<svg width="85" height="27" viewBox="0 0 85 27" fill="none" xmlns="http://www.w3.org/2000/svg">
<circle cx="6" cy="15" r="6" fill="#A5A6F6"/>
<circle cx="8.5" cy="3.5" r="3.5" fill="#36C5B3"/>
<circle cx="11" cy="15" r="6" fill="#FCDDEC"/>
<rect x="5" y="8" width="7" height="14" rx="2" fill="#EF5DA8"/>
<path d="M12 13L5 20H12L12 13Z" fill="#4337CE"/>
<path d="M25.664 8.912C25.124 8.912 24.68 8.756 24.332 8.444C23.996 8.12 23.828 7.724 23.828 7.256C23.828 6.776 23.996 6.38 24.332 6.068C24.68 5.744 25.124 5.582 25.664 5.582C26.192 5.582 26.624 5.744 26.96 6.068C27.308 6.38 27.482 6.776 27.482 7.256C27.482 7.724 27.308 8.12 26.96 8.444C26.624 8.756 26.192 8.912 25.664 8.912ZM27.194 9.956V20H24.116V9.956H27.194ZM33.9966 20.126C33.0726 20.126 32.2446 19.976 31.5126 19.676C30.7806 19.376 30.1926 18.932 29.7486 18.344C29.3166 17.756 29.0886 17.048 29.0646 16.22H32.3406C32.3886 16.688 32.5506 17.048 32.8266 17.3C33.1026 17.54 33.4626 17.66 33.9066 17.66C34.3626 17.66 34.7226 17.558 34.9866 17.354C35.2506 17.138 35.3826 16.844 35.3826 16.472C35.3826 16.16 35.2746 15.902 35.0586 15.698C34.8546 15.494 34.5966 15.326 34.2846 15.194C33.9846 15.062 33.5526 14.912 32.9886 14.744C32.1726 14.492 31.5066 14.24 30.9906 13.988C30.4746 13.736 30.0306 13.364 29.6586 12.872C29.2866 12.38 29.1006 11.738 29.1006 10.946C29.1006 9.77 29.5266 8.852 30.3786 8.192C31.2306 7.52 32.3406 7.184 33.7086 7.184C35.1006 7.184 36.2226 7.52 37.0746 8.192C37.9266 8.852 38.3826 9.776 38.4426 10.964H35.1126C35.0886 10.556 34.9386 10.238 34.6626 10.01C34.3866 9.77 34.0326 9.65 33.6006 9.65C33.2286 9.65 32.9286 9.752 32.7006 9.956C32.4726 10.148 32.3586 10.43 32.3586 10.802C32.3586 11.21 32.5506 11.528 32.9346 11.756C33.3186 11.984 33.9186 12.23 34.7346 12.494C35.5506 12.77 36.2106 13.034 36.7146 13.286C37.2306 13.538 37.6746 13.904 38.0466 14.384C38.4186 14.864 38.6046 15.482 38.6046 16.238C38.6046 16.958 38.4186 17.612 38.0466 18.2C37.6866 18.788 37.1586 19.256 36.4626 19.604C35.7666 19.952 34.9446 20.126 33.9966 20.126ZM45.0708 20.144C44.0868 20.144 43.1988 19.934 42.4068 19.514C41.6268 19.094 41.0088 18.494 40.5528 17.714C40.1088 16.934 39.8868 16.022 39.8868 14.978C39.8868 13.946 40.1148 13.04 40.5708 12.26C41.0268 11.468 41.6508 10.862 42.4428 10.442C43.2348 10.022 44.1228 9.812 45.1068 9.812C46.0908 9.812 46.9788 10.022 47.7708 10.442C48.5628 10.862 49.1868 11.468 49.6428 12.26C50.0988 13.04 50.3268 13.946 50.3268 14.978C50.3268 16.01 50.0928 16.922 49.6248 17.714C49.1688 18.494 48.5388 19.094 47.7348 19.514C46.9428 19.934 46.0548 20.144 45.0708 20.144ZM45.0708 17.48C45.6588 17.48 46.1568 17.264 46.5648 16.832C46.9848 16.4 47.1948 15.782 47.1948 14.978C47.1948 14.174 46.9908 13.556 46.5828 13.124C46.1868 12.692 45.6948 12.476 45.1068 12.476C44.5068 12.476 44.0088 12.692 43.6128 13.124C43.2168 13.544 43.0188 14.162 43.0188 14.978C43.0188 15.782 43.2108 16.4 43.5948 16.832C43.9908 17.264 44.4828 17.48 45.0708 17.48ZM51.3478 14.978C51.3478 13.934 51.5578 13.022 51.9778 12.242C52.4098 11.462 53.0038 10.862 53.7598 10.442C54.5278 10.022 55.4038 9.812 56.3878 9.812C57.6478 9.812 58.6978 10.142 59.5378 10.802C60.3898 11.462 60.9478 12.392 61.2118 13.592H57.9358C57.6598 12.824 57.1258 12.44 56.3338 12.44C55.7698 12.44 55.3198 12.662 54.9838 13.106C54.6478 13.538 54.4798 14.162 54.4798 14.978C54.4798 15.794 54.6478 16.424 54.9838 16.868C55.3198 17.3 55.7698 17.516 56.3338 17.516C57.1258 17.516 57.6598 17.132 57.9358 16.364H61.2118C60.9478 17.54 60.3898 18.464 59.5378 19.136C58.6858 19.808 57.6358 20.144 56.3878 20.144C55.4038 20.144 54.5278 19.934 53.7598 19.514C53.0038 19.094 52.4098 18.494 51.9778 17.714C51.5578 16.934 51.3478 16.022 51.3478 14.978ZM64.4062 8.912C63.8662 8.912 63.4222 8.756 63.0742 8.444C62.7382 8.12 62.5702 7.724 62.5702 7.256C62.5702 6.776 62.7382 6.38 63.0742 6.068C63.4222 5.744 63.8662 5.582 64.4062 5.582C64.9342 5.582 65.3662 5.744 65.7022 6.068C66.0502 6.38 66.2242 6.776 66.2242 7.256C66.2242 7.724 66.0502 8.12 65.7022 8.444C65.3662 8.756 64.9342 8.912 64.4062 8.912ZM65.9362 9.956V20H62.8582V9.956H65.9362ZM67.5548 14.96C67.5548 13.928 67.7468 13.022 68.1308 12.242C68.5268 11.462 69.0608 10.862 69.7328 10.442C70.4048 10.022 71.1548 9.812 71.9828 9.812C72.6908 9.812 73.3088 9.956 73.8368 10.244C74.3768 10.532 74.7908 10.91 75.0788 11.378V9.956H78.1568V20H75.0788V18.578C74.7788 19.046 74.3588 19.424 73.8188 19.712C73.2908 20 72.6728 20.144 71.9648 20.144C71.1488 20.144 70.4048 19.934 69.7328 19.514C69.0608 19.082 68.5268 18.476 68.1308 17.696C67.7468 16.904 67.5548 15.992 67.5548 14.96ZM75.0788 14.978C75.0788 14.21 74.8628 13.604 74.4308 13.16C74.0108 12.716 73.4948 12.494 72.8828 12.494C72.2708 12.494 71.7488 12.716 71.3168 13.16C70.8968 13.592 70.6868 14.192 70.6868 14.96C70.6868 15.728 70.8968 16.34 71.3168 16.796C71.7488 17.24 72.2708 17.462 72.8828 17.462C73.4948 17.462 74.0108 17.24 74.4308 16.796C74.8628 16.352 75.0788 15.746 75.0788 14.978ZM83.4616 6.68V20H80.3836V6.68H83.4616Z" fill="black"/>
</svg>
